<svg id="Capa_1" data-name="Capa_1" xmlns="http://www.w3.org/2000/svg" viewBox="0 0 512 343.7"><title>contact</title><path d="M467.75,84H44.25A44.3,44.3,0,0,0,0,128.25v255.2A44.3,44.3,0,0,0,44.25,427.7h423.5A44.3,44.3,0,0,0,512,383.45V128.25A44.3,44.3,0,0,0,467.75,84Zm29,299.45a29.08,29.08,0,0,1-29,29H44.25a29.08,29.08,0,0,1-29-29V128.25a29.08,29.08,0,0,1,29-29h423.5a29.08,29.08,0,0,1,29,29Z" transform="translate(0 -84)"/><path d="M227.61,144.83H51.2a7.6,7.6,0,0,0-7.6,7.61v18.24a7.61,7.61,0,1,0,15.21,0V160H220V345.58H58.81V201.1a7.61,7.61,0,0,0-15.21,0V353.18a7.61,7.61,0,0,0,7.6,7.61H227.61a7.61,7.61,0,0,0,7.61-7.61V152.44A7.61,7.61,0,0,0,227.61,144.83Z" transform="translate(0 -84)"/><path d="M462.83,162.46H272.23a7.61,7.61,0,1,0,0,15.21h190.6a7.61,7.61,0,0,0,0-15.21Z" transform="translate(0 -84)"/><path d="M462.83,217.63H420.25a7.6,7.6,0,0,0,0,15.2h42.58a7.6,7.6,0,1,0,0-15.2Z" transform="translate(0 -84)"/><path d="M272.23,232.83h117.6a7.6,7.6,0,1,0,0-15.2H272.23a7.6,7.6,0,1,0,0,15.2Z" transform="translate(0 -84)"/><path d="M462.83,272.79H272.23a7.6,7.6,0,1,0,0,15.2h190.6a7.6,7.6,0,1,0,0-15.2Z" transform="translate(0 -84)"/><path d="M375.64,328H272.23a7.6,7.6,0,1,0,0,15.2H375.64a7.6,7.6,0,1,0,0-15.2Z" transform="translate(0 -84)"/><path d="M86.18,328.85a7.61,7.61,0,0,0,15.21,0,38,38,0,0,1,76,0,7.61,7.61,0,0,0,15.21,0,53.23,53.23,0,0,0-25.85-45.63,53.23,53.23,0,1,0-54.76,0A53.23,53.23,0,0,0,86.18,328.85Zm15.21-91.25a38,38,0,1,1,38,38A38.06,38.06,0,0,1,101.39,237.6Z" transform="translate(0 -84)"/></svg>
